Coordinates
version=1
nRows=49
nColumns=12
inDegrees=yes

Units are S.I. units (second, meters, Newtons, ...)
Angles are in degrees

endheader
time	SC_y	SC_z	SC_x	AC_y	AC_z	AC_x	GH_y	GH_z	GH_yy	EL_x	PS_y
       0.0              -53.57         -1.266          71.61           42.4         -14.79         -14.56         -107.3          11.53          52.66          45.61          120.3
    0.0105              -53.56         -1.262          71.61           42.4         -14.79         -14.56         -107.3          11.53          52.67          45.61          120.3
   0.02099              -53.56         -1.257          71.61           42.4         -14.79         -14.55         -107.3          11.54          52.68          45.61          120.3
   0.03149              -53.56         -1.252          71.61          42.41         -14.79         -14.55         -107.3          11.54          52.69           45.6          120.3
   0.04198              -53.56         -1.246          71.61          42.41         -14.79         -14.55         -107.3          11.55           52.7           45.6          120.3
   0.05248              -53.55          -1.24          71.61          42.42         -14.79         -14.55         -107.3          11.55          52.71           45.6          120.3
   0.06297              -53.55         -1.234          71.61          42.42         -14.79         -14.55         -107.3          11.56          52.72          45.59          120.3
   0.07347              -53.55         -1.227          71.61          42.43         -14.79         -14.54         -107.3          11.56          52.74          45.59          120.3
   0.08396              -53.54          -1.22          71.61          42.43         -14.79         -14.54         -107.4          11.57          52.75          45.59          120.3
   0.09446              -53.54         -1.212          71.61          42.44         -14.79         -14.54         -107.4          11.57          52.77          45.58          120.4
     0.105              -53.53         -1.204          71.61          42.44         -14.79         -14.54         -107.4          11.58          52.79          45.58          120.4
    0.1154              -53.53         -1.195          71.61          42.45         -14.79         -14.53         -107.4          11.59           52.8          45.57          120.4
    0.1259              -53.52         -1.186          71.61          42.46         -14.79         -14.53         -107.4           11.6          52.82          45.57          120.4
    0.1364              -53.52         -1.175          71.61          42.47         -14.79         -14.52         -107.4           11.6          52.84          45.56          120.4
    0.1469              -53.51         -1.164          71.61          42.47         -14.79         -14.52         -107.5          11.61          52.87          45.56          120.4
    0.1574              -53.51         -1.152          71.61          42.48         -14.79         -14.52         -107.5          11.62          52.89          45.55          120.4
    0.1679               -53.5         -1.139          71.61          42.49         -14.79         -14.51         -107.5          11.63          52.92          45.54          120.4
    0.1784              -53.49         -1.124          71.61           42.5         -14.79         -14.51         -107.5          11.64          52.95          45.54          120.5
    0.1889              -53.48         -1.109          71.61          42.52         -14.79          -14.5         -107.6          11.66          52.98          45.53          120.5
    0.1994              -53.48         -1.091          71.61          42.53         -14.79         -14.49         -107.6          11.67          53.01          45.52          120.5
    0.2099              -53.47         -1.072          71.61          42.54         -14.79         -14.49         -107.6          11.69          53.05          45.51          120.5
    0.2204              -53.45         -1.052           71.6          42.56         -14.79         -14.48         -107.7           11.7          53.09           45.5          120.5
    0.2309              -53.44         -1.029           71.6          42.58          -14.8         -14.47         -107.7          11.72          53.14          45.48          120.6
    0.2414              -53.43         -1.003           71.6           42.6          -14.8         -14.46         -107.7          11.74          53.19          45.47          120.6
    0.2519              -53.41        -0.9749           71.6          42.62          -14.8         -14.45         -107.8          11.76          53.25          45.46          120.6
    0.2624               -53.4        -0.9434           71.6          42.64          -14.8         -14.44         -107.9          11.79          53.31          45.44          120.7
    0.2729              -53.38         -0.908           71.6          42.67          -14.8         -14.43         -107.9          11.82          53.38          45.42          120.7
    0.2834              -53.36        -0.8682           71.6           42.7          -14.8         -14.41         -108.0          11.85          53.47           45.4          120.8
    0.2939              -53.34        -0.8232           71.6          42.74          -14.8          -14.4         -108.1          11.89          53.56          45.38          120.8
    0.3044              -53.31        -0.7722           71.6          42.78          -14.8         -14.38         -108.2          11.93          53.66          45.35          120.9
    0.3149              -53.28        -0.7139          71.59          42.82          -14.8         -14.36         -108.3          11.97          53.78          45.32          120.9
    0.3254              -53.24        -0.6471          71.59          42.87          -14.8         -14.33         -108.4          12.03          53.91          45.28          121.0
    0.3358               -53.2        -0.5699          71.59          42.93         -14.81          -14.3         -108.5          12.09          54.07          45.24          121.1
    0.3463              -53.16        -0.4801          71.59           43.0         -14.81         -14.27         -108.7          12.16          54.25          45.19          121.2
    0.3568               -53.1        -0.3752          71.58          43.08         -14.81         -14.23         -108.9          12.25          54.46          45.14          121.3
    0.3673              -53.04        -0.2515          71.58          43.18         -14.81         -14.19         -109.1          12.35          54.71          45.07          121.5
    0.3778              -52.96        -0.1044          71.57          43.29         -14.82         -14.13         -109.3          12.46          55.01          44.99          121.7
    0.3883              -52.87        0.07183          71.57          43.42         -14.82         -14.07         -109.7          12.61          55.37           44.9          121.9
    0.3988              -52.76         0.2851          71.56          43.59         -14.83         -13.99         -110.0          12.78           55.8          44.79          122.1
    0.4093              -52.62         0.5455          71.55          43.79         -14.83          -13.9         -110.5          12.99          56.33          44.65          122.4
    0.4198              -52.46          0.867          71.54          44.03         -14.84         -13.78         -111.1          13.24          56.98          44.48          122.8
    0.4303              -52.25          1.268          71.53          44.34         -14.85         -13.63         -111.8          13.57          57.79          44.26          123.3
    0.4408              -51.98          1.773          71.51          44.73         -14.86         -13.45         -112.7          13.97          58.81          43.99          123.9
    0.4513              -51.65          2.415          71.49          45.22         -14.88         -13.22         -113.8          14.49          60.11          43.65          124.6
    0.4618              -51.22          3.237          71.46          45.86         -14.89         -12.92         -115.3          15.15          61.78          43.22          125.6
    0.4723              -50.67          4.291          71.43          46.67         -14.92         -12.53         -117.2          15.99          63.91          42.66          126.8
    0.4828              -49.97          5.638          71.38           47.7         -14.95         -12.04         -119.6          17.08          66.64          41.94          128.4
    0.4933              -49.09          7.332          71.32           49.0         -14.99         -11.43         -122.6          18.44          70.07          41.04          130.4
    0.5038              -48.02          9.396          71.25          50.59         -15.04         -10.68         -126.3          20.09          74.25          39.94          132.8
